# xmcd
#
# Track frame offsets:
#	150
#	22307
#	41447
#	61847
#	83164
#	102131
#	115801
#
# Disc length: 1823 seconds
#
# Revision: 0
# Processed by: cddbd v1.5.1PL2 Copyright (c) Steve Scherf et al.
# Submitted via: EasyCDDAExtractor 9.0.0.1
#
DISCID=51071d07
DTITLE=Propaganda - I Am Not Them
DYEAR=1900
DGENRE=
TTITLE0=Whoa (feat. Lightheaded)
TTITLE1=Locked In
TTITLE2=Son (feat. Estee Bullock)
TTITLE3=Ready to leave (feat. Triune, Hilsyde and Macho)
TTITLE4=I am not them (feat. Othello and Reconcile)
TTITLE5=Tired of Lyin
TTITLE6=We Phenomenons (feat. Triune, Ishues and Xhale)
EXTD=
EXTT0=
EXTT1=
EXTT2=
EXTT3=
EXTT4=
EXTT5=
EXTT6=
PLAYORDER=
